# xmcd
#
# Track frame offsets: 
#        150
#        22352
#        40487
#        66012
#        88563
#        109056
#        133653
#        147430
#        173891
#        182108
#        193386
#        204136
#        221337
#        247828
#        258198
#        284142
#        311639
#        325792
#
# Disc length: 4542 seconds
#
# Revision: 1
# Processed by: cddbd v1.5.2PL0 Copyright (c) Steve Scherf et al.
# Submitted via: ExactAudioCopy v0.99pb4
#
DISCID=1511bc12
DTITLE=Jeff Beck - Guitar Heroes Vol.5
DYEAR=2000
DGENRE=Rock
TTITLE0=Behind The Veil
TTITLE1=Led Boots
TTITLE2=Scatterbrain
TTITLE3=Freeway Jam
TTITLE4=She's A Woman
TTITLE5=Situation
TTITLE6=Jeff's Boogie
TTITLE7=New Ways Train Train
TTITLE8=Psycho Daisies
TTITLE9=Heart Full Of Soul
TTITLE10=Over Under Sideways Down
TTITLE11=Black Cat Moan(Studio Version)
TTITLE12=Blue Wind
TTITLE13=Sleep Walk
TTITLE14=Cause We've Ended As Lovers
TTITLE15=Gets Us All In The End
TTITLE16=Sling Shot
TTITLE17=Where Were You
EXTD=
EXTT0=
EXTT1=
EXTT2=
EXTT3=
EXTT4=
EXTT5=
EXTT6=
EXTT7=
EXTT8=
EXTT9=
EXTT10=
EXTT11=
EXTT12=
EXTT13=
EXTT14=
EXTT15=
EXTT16=
EXTT17=
PLAYORDER=
